<?xml version="1.0" standalone="no"?>
<!DOCTYPE svg PUBLIC "-//W3C//DTD SVG 20010904//EN"
 "http://www.w3.org/TR/2001/REC-SVG-20010904/DTD/svg10.dtd">
<svg version="1.0" xmlns="http://www.w3.org/2000/svg"
 width="700.000000pt" height="700.000000pt" viewBox="0 0 700.000000 700.000000"
 preserveAspectRatio="xMidYMid meet">
<metadata>
Created by potrace 1.14, written by Peter Selinger 2001-2017
</metadata>
<g transform="translate(0.000000,700.000000) scale(0.100000,-0.100000)"
fill="#000000" stroke="none">
<path d="M3116 6984 c-38 -7 -105 -25 -150 -40 -68 -23 -2059 -1013 -2166
-1077 -80 -49 -143 -122 -154 -180 -11 -62 41 -147 127 -206 66 -45 2135
-1076 2207 -1100 115 -37 189 -50 303 -49 253 0 242 -5 1467 610 1021 513
1096 552 1131 588 83 84 62 236 -42 305 -23 15 -515 265 -1093 555 -891 447
-1139 566 -1188 571 -4 0 -22 5 -40 10 -87 26 -299 33 -402 13z"/>
<path d="M205 5230 c-81 -18 -141 -78 -178 -177 l-22 -58 0 -1635 c0 -1471 2
-1644 16 -1720 38 -196 105 -328 244 -478 80 -87 155 -133 446 -275 151 -74
549 -271 884 -437 731 -363 842 -416 912 -436 173 -50 308 67 331 289 4 40 7
345 7 679 0 335 0 608 0 608 0 0 40 -13 88 -29 60 -19 112 -29 165 -30 113 -3
130 -20 147 -146 8 -57 42 -130 77 -162 25 -24 99 -58 194 -91 34 -12 86 -32
115 -45 30 -14 128 -57 219 -97 91 -40 198 -88 238 -106 176 -82 231 -72 612
113 113 55 248 121 300 146 89 42 249 119 555 267 344 166 446 215 520 250
296 139 579 284 631 323 55 42 106 93 156 155 54 67 112 221 125 329 9 77 8
1330 -1 1368 -20 82 -79 152 -162 191 -28 13 -64 34 -78 45 -30 24 -200 109
-278 140 -62 24 -211 98 -218 108 -9 12 -93 66 -135 85 -51 24 -161 32 -222
17 -52 -14 -74 -23 -308 -136 -88 -43 -205 -99 -260 -125 -166 -79 -340 -163
-520 -250 -93 -45 -210 -101 -260 -125 -49 -23 -166 -80 -260 -125 -198 -96
-377 -182 -525 -252 -186 -88 -306 -182 -389 -308 -48 -72 -102 -197 -115
-266 -19 -101 -21 -121 -31 -304 -4 -76 -11 -128 -18 -133 -13 -9 -176 -3
-222 7 -16 4 -54 17 -85 29 l-55 22 -2 485 c-1 445 -6 628 -17 688 -27 137
-78 256 -150 352 -81 109 -161 173 -312 251 -521 270 -1942 968 -2020 993 -34
10 -106 14 -139 6z"/>
</g>
</svg>
